<svg width="75" height="59" viewBox="0 0 75 59" fill="none" xmlns="http://www.w3.org/2000/svg">
<path d="M55.3518 20.1837C55.2248 21.8065 54.8794 23.4047 54.3251 24.9345C53.1852 28.0873 51.1922 30.8587 48.5699 32.9377C45.3851 35.4815 41.4334 36.8632 37.3632 36.8562C34.9937 36.8563 32.6473 36.3879 30.4581 35.4779C28.2689 34.5679 26.2797 33.234 24.6042 31.5524C22.9286 29.8708 21.5996 27.8744 20.6928 25.6773C19.786 23.4802 19.3194 21.1253 19.3195 18.7472C19.3202 13.9451 21.2217 9.3399 24.6055 5.9447C27.9893 2.54949 32.5784 0.642331 37.3632 0.642748C39.9034 0.639262 42.4155 1.17565 44.7343 2.2166C47.0531 3.25754 49.126 4.77946 50.8166 6.68222L47.3221 9.66721C46.062 8.27282 44.5247 7.15889 42.8094 6.39722C41.0942 5.63554 39.2389 5.24304 37.3632 5.245C33.7955 5.24619 30.3743 6.6691 27.8515 9.20096C25.3288 11.7328 23.911 15.1664 23.9098 18.747C23.9103 22.3278 25.3278 25.7619 27.8507 28.2939C30.3736 30.8259 33.7953 32.2486 37.3632 32.2491C40.6317 32.2552 43.7894 31.0602 46.2402 28.8897C47.505 27.7768 48.55 26.435 49.3204 24.9343H40.0384L40.9593 20.1835L55.3518 20.1837Z" fill="#74F9BC"/>
<path d="M39.1585 13.0537C39.1575 14.2025 38.702 15.3038 37.8922 16.1157C37.0824 16.9276 35.9845 17.3836 34.8399 17.3835C33.6959 17.3827 32.5991 16.9263 31.7902 16.1144C30.9813 15.3026 30.5265 14.2018 30.5257 13.0537C30.5255 11.9049 30.9799 10.8031 31.7888 9.99034C32.5978 9.1776 33.6952 8.72048 34.8399 8.71944C35.9852 8.71954 37.0836 9.17621 37.8935 9.98902C38.7034 10.8018 39.1584 11.9042 39.1585 13.0537Z" fill="white"/>
<path d="M17.5381 18.7481C17.536 15.4839 18.3349 12.2695 19.8642 9.38871C21.3935 6.50792 23.6061 4.04944 26.3067 2.23042C17.538 4.74549 8.76915 10.2514 0 18.7481C8.76863 27.2476 17.5375 32.7537 26.3067 35.2661C23.6061 33.447 21.3934 30.9885 19.8642 28.1076C18.3349 25.2268 17.536 22.0123 17.5381 18.7481Z" fill="white"/>
<path d="M48.4238 2.23042C51.1244 4.0494 53.3371 6.50785 54.8665 9.38864C56.3959 12.2694 57.1949 15.4839 57.1929 18.7481C57.1949 22.0123 56.396 25.2268 54.8666 28.1077C53.3372 30.9885 51.1244 33.4471 48.4238 35.2661C57.1925 32.7505 65.9614 27.2445 74.7302 18.7481C65.9616 10.2489 57.1928 4.74301 48.4238 2.23042Z" fill="white"/>
<path d="M1.31506 51.2599V49.0918L8.2578 45.8403V48.4109L4.5088 50.114L8.2578 51.8173V54.5114L1.31506 51.2599Z" fill="white"/>
<path d="M73.4411 49.0918V51.2599L66.4984 54.5112V51.941L70.2473 50.2378L66.4984 48.5344V45.8403L73.4411 49.0918Z" fill="white"/>
<path d="M17.5606 58.7693C14.783 58.7693 13.2407 58.0879 13.2407 56.849C13.2407 56.1676 13.7962 55.6413 14.7221 55.4553C14.0896 55.0992 13.7039 54.5418 13.7039 53.9379C13.7039 53.1326 14.2438 52.5289 15.247 52.1728C14.8795 51.9337 14.5781 51.6054 14.3705 51.2184C14.1629 50.8315 14.0558 50.3982 14.0591 49.9587C14.0528 49.5642 14.1389 49.1736 14.3105 48.8186C14.482 48.4635 14.7342 48.1538 15.0467 47.9144C15.7101 47.3724 16.5742 47.0938 17.6232 47.0938C18.7343 47.0938 19.6752 47.419 20.3391 48.0382C20.7712 47.4807 21.419 47.2177 22.3602 47.2177V49.2C21.9377 49.1857 21.5156 49.238 21.1092 49.3547C21.1566 49.5526 21.1824 49.7552 21.1862 49.9587C21.1942 50.3557 21.1089 50.7489 20.9374 51.1067C20.7658 51.4645 20.5127 51.7767 20.1986 52.0181C19.5352 52.5599 18.6866 52.8234 17.6221 52.8234C17.2485 52.8205 16.8762 52.779 16.5111 52.6995C16.1407 52.808 15.9401 52.9473 15.9401 53.1485C15.9401 53.4426 16.1253 53.5358 16.5728 53.5358H19.6121C21.3863 53.5358 22.3897 54.3563 22.3897 55.7659C22.3897 57.6389 20.5692 58.7693 17.5606 58.7693ZM17.5915 57.0815C19.2424 57.0815 20.0292 56.8184 20.0292 56.2762C20.0292 55.982 19.7669 55.8116 19.335 55.8116H17.0512C16.0175 55.8116 15.5855 55.982 15.5855 56.4153C15.5858 56.8648 16.2338 57.0815 17.5915 57.0815ZM17.6378 48.7977C16.9127 48.7977 16.496 49.2157 16.496 49.9591C16.496 50.6868 16.9435 51.1361 17.6378 51.1361C18.3321 51.1361 18.7641 50.7024 18.7641 49.9591C18.7641 49.2157 18.3629 48.7972 17.6378 48.7972V48.7977Z" fill="#74F9BC"/>
<path d="M24.0087 54.279C23.268 53.5203 22.8977 52.5139 22.8977 51.2442C22.8977 50.0365 23.2835 49.0456 24.0395 48.2708C24.7953 47.4811 25.7677 47.0938 26.9552 47.0938C28.0507 47.0938 28.9454 47.4343 29.6093 48.1311C30.2883 48.8279 30.6275 49.7418 30.6275 50.9027C30.6275 51.2743 30.5967 51.615 30.5812 51.8783H25.4441C25.6138 52.8846 26.1538 53.3651 27.2492 53.3651C27.9555 53.3379 28.6242 53.0384 29.1159 52.5288L30.4738 54.0462C29.656 54.9754 28.5604 55.3933 27.0025 55.3933C25.7527 55.3938 24.7494 55.0224 24.0087 54.279ZM25.4901 50.2998H28.0975C28.0825 49.4326 27.6505 48.983 26.9098 48.983C26.1691 48.983 25.6753 49.4326 25.4901 50.2998Z" fill="#74F9BC"/>
<path d="M32.7406 54.279C31.9999 53.5203 31.6296 52.5139 31.6296 51.2442C31.6296 50.0365 32.0151 49.0456 32.7712 48.2708C33.5272 47.4811 34.4995 47.0938 35.6871 47.0938C36.7826 47.0938 37.6773 47.4343 38.3412 48.1311C39.0202 48.8279 39.3596 49.7418 39.3596 50.9027C39.3596 51.2743 39.3287 51.615 39.3133 51.8783H34.1755C34.3452 52.8846 34.8852 53.3651 35.9807 53.3651C36.687 53.3379 37.3557 53.0384 37.8474 52.5288L39.2054 54.0462C38.3875 54.9754 37.2919 55.3933 35.734 55.3933C34.4841 55.3938 33.4812 55.0224 32.7406 54.279ZM34.222 50.2998H36.8295C36.8141 49.4325 36.382 48.9834 35.6414 48.9834C34.9009 48.9834 34.4069 49.4326 34.2218 50.2998H34.222Z" fill="#74F9BC"/>
<path d="M45.8091 50.3926L48.9103 55.2082H45.8241L43.9422 52.1114L43.3715 52.715V55.2082H40.7791V43.9048H43.3715V49.7734L45.6858 47.2803H48.8021L45.8091 50.3926Z" fill="#74F9BC"/>
<path d="M49.7582 55.2082V43.9048H52.3506V55.2082H49.7582Z" fill="#74F9BC"/>
<path d="M54.8338 54.279C54.0932 53.5203 53.7228 52.5139 53.7228 51.2442C53.7228 50.0365 54.1086 49.0456 54.8646 48.2708C55.6206 47.4811 56.5929 47.0938 57.7804 47.0938C58.8759 47.0938 59.7707 47.4343 60.4346 48.1311C61.1135 48.8279 61.4528 49.7418 61.4528 50.9027C61.4528 51.2743 61.422 51.615 61.4066 51.8783H56.2686C56.4383 52.8846 56.9783 53.3651 58.0737 53.3651C58.7801 53.3379 59.4487 53.0383 59.9405 52.5288L61.2985 54.0462C60.4807 54.9754 59.385 55.3933 57.8271 55.3933C56.5772 55.3938 55.5745 55.0224 54.8338 54.279ZM56.3152 50.2998H58.9226C58.9071 49.4325 58.4752 48.9834 57.7346 48.9834C56.9941 48.9834 56.5004 49.4326 56.3152 50.2998Z" fill="#74F9BC"/>
</svg>
